<svg id="Capa_1" enable-background="new 0 0 511.987 511.987" height="512" viewBox="0 0 511.987 511.987" width="512" xmlns="http://www.w3.org/2000/svg"><path d="m255.994 0c-108.075 0-196 87.925-196 196 0 43.142 14.638 85.844 41.218 120.243.422.546 148.845 192.827 148.845 192.827 1.42 1.84 3.613 2.917 5.937 2.917 2.334-.002 4.528-1.084 5.946-2.929 0 0 146.862-191.049 148.221-192.815 26.977-34.912 41.833-77.614 41.833-120.243 0-108.075-87.925-196-196-196zm142.301 307.065c-.056.072-86.53 112.564-142.314 185.132-56.017-72.569-142.863-185.077-142.901-185.126-24.56-31.785-38.086-71.231-38.086-111.071 0-99.804 81.196-181 181-181s181 81.196 181 181c0 39.324-13.744 78.768-38.699 111.065z"/><path d="m255.994 60c-30.928 0-60.074 10.121-84.288 29.268-3.249 2.569-3.8 7.286-1.231 10.535 2.568 3.25 7.286 3.8 10.535 1.231 21.537-17.032 47.467-26.034 74.984-26.034 66.72 0 121 54.28 121 121s-54.28 121-121 121-121-54.28-121-121c0-27.517 9.002-53.445 26.034-74.984 2.569-3.249 2.018-7.966-1.231-10.535s-7.966-2.019-10.535 1.231c-19.147 24.214-29.268 53.361-29.268 84.288 0 74.991 61.009 136 136 136 74.99 0 136-61.009 136-136s-61.01-136-136-136z"/></svg>