<svg xmlns="http://www.w3.org/2000/svg" width="50" height="50" viewBox="0 0 50 50">
  <g id="Group_1285" data-name="Group 1285" transform="translate(-174 -383)">
    <path id="Path_3637" data-name="Path 3637" d="M25,0A25,25,0,1,1,0,25,25,25,0,0,1,25,0Z" transform="translate(174 383)" fill="rgba(241,90,41,0.1)"/>
    <g id="book_1_" data-name="book (1)" transform="translate(188 399)">
      <path id="Path_3680" data-name="Path 3680" d="M240.333,15.148V0l-.578.048a22.229,22.229,0,0,0-6.738,1.642L232,2.113V17.2l.741-.308a23.124,23.124,0,0,1,6.97-1.695Zm0,0" transform="translate(-221.015)" fill="#f15a29"/>
      <path id="Path_3681" data-name="Path 3681" d="M273.322,47.3h-1.136V60.554a.379.379,0,0,1-.348.379l-.97.08q-.42.035-.837.086c-.09.011-.18.025-.27.038-.188.025-.375.05-.561.08-.109.017-.217.038-.325.057-.167.029-.334.058-.5.091-.114.023-.227.048-.343.073-.159.034-.317.068-.475.106-.118.028-.236.058-.353.088-.153.038-.306.079-.458.121-.119.033-.237.067-.355.1-.151.045-.3.09-.45.138l-.351.114q-.225.076-.447.156l-.343.126-.155.061h8.682Zm0,0" transform="translate(-252.11 -45.057)" fill="#f15a29"/>
      <path id="Path_3682" data-name="Path 3682" d="M40.578.048,40,0V15.149l.672.057a22.969,22.969,0,0,1,6.962,1.7l.7.291V2.113l-1.016-.422A22.228,22.228,0,0,0,40.578.048Zm0,0" transform="translate(-38.106)" fill="#f15a29"/>
      <path id="Path_3683" data-name="Path 3683" d="M0,47.3V62.448H8.688c-.047-.018-.093-.038-.14-.055-.108-.041-.218-.081-.327-.12-.154-.056-.308-.11-.463-.162Q7.59,62.054,7.421,62q-.231-.076-.462-.142c-.114-.033-.227-.067-.341-.1-.156-.043-.312-.084-.468-.124-.114-.029-.227-.058-.343-.086-.159-.038-.318-.073-.478-.107-.114-.025-.227-.05-.341-.072-.165-.033-.331-.062-.5-.091l-.326-.057c-.183-.029-.367-.054-.55-.078-.093-.012-.185-.027-.278-.038q-.417-.05-.833-.086l-1.02-.086a.379.379,0,0,1-.347-.379V47.3Zm0,0" transform="translate(0 -45.057)" fill="#f15a29"/>
    </g>
  </g>
</svg>
