<svg xmlns="http://www.w3.org/2000/svg" width="50" height="50" viewBox="0 0 50 50">
  <g id="Group_1281" data-name="Group 1281" transform="translate(-174 -383)">
    <path id="Path_3637" data-name="Path 3637" d="M25,0A25,25,0,1,1,0,25,25,25,0,0,1,25,0Z" transform="translate(174 383)" fill="rgba(124,45,127,0.1)"/>
    <g id="fashion_1_" data-name="fashion (1)" transform="translate(188 378.781)">
      <path id="Path_3656" data-name="Path 3656" d="M122.094,25.47a2.267,2.267,0,0,0,2.16-1.565,9.113,9.113,0,0,1-4.319,0A2.267,2.267,0,0,0,122.094,25.47Z" transform="translate(-110.629 -4.322)" fill="#7c2d7f"/>
      <path id="Path_3657" data-name="Path 3657" d="M22.9,22.293a.525.525,0,0,0-.273-.3l-4.372-2.018a21.143,21.143,0,0,0-2.834-.746.521.521,0,0,0-.1-.01.514.514,0,0,0-.5.4,3.439,3.439,0,0,1-6.712,0,.514.514,0,0,0-.5-.4.521.521,0,0,0-.1.01,21.224,21.224,0,0,0-2.836.746L.3,21.993a.514.514,0,0,0-.272.3.51.51,0,0,0,.027.4l1.9,3.746a.515.515,0,0,0,.61.263l2.108-.625V38.65a.519.519,0,0,0,.519.518H17.74a.519.519,0,0,0,.518-.518V26.082l2.11.625a.515.515,0,0,0,.61-.263l1.9-3.746A.52.52,0,0,0,22.9,22.293Z" transform="translate(0 0)" fill="#7c2d7f"/>
    </g>
  </g>
</svg>
