<svg xmlns="http://www.w3.org/2000/svg" width="50" height="50" viewBox="0 0 50 50">
  <g id="Group_1284" data-name="Group 1284" transform="translate(-174 -383)">
    <path id="Path_3637" data-name="Path 3637" d="M25,0A25,25,0,1,1,0,25,25,25,0,0,1,25,0Z" transform="translate(174 383)" fill="rgba(249,171,60,0.1)"/>
    <g id="money_12_" data-name="money (12)" transform="translate(152.762 395)">
      <g id="Group_1191" data-name="Group 1191" transform="translate(36.238 0)">
        <g id="Group_1184" data-name="Group 1184" transform="translate(10.173 15.008)">
          <path id="Path_3776" data-name="Path 3776" d="M222.461,273.613a1.11,1.11,0,0,0-.312-.226,3.758,3.758,0,0,0-.789-.279V275.2a1.484,1.484,0,0,0,1.17-.617h0a.954.954,0,0,0,.087-.652A.656.656,0,0,0,222.461,273.613Z" transform="translate(-221.36 -273.108)" fill="#f9ab3c"/>
        </g>
        <g id="Group_1185" data-name="Group 1185" transform="translate(11.34 16.48)">
          <path id="Path_3777" data-name="Path 3777" d="M242.6,299.9l0,0h0Z" transform="translate(-242.604 -299.9)" fill="#f9ab3c"/>
        </g>
        <g id="Group_1186" data-name="Group 1186" transform="translate(7.979 11.656)">
          <path id="Path_3778" data-name="Path 3778" d="M181.582,212.624a.784.784,0,0,0-.135.367.88.88,0,0,0,.045.406.651.651,0,0,0,.253.278,1.974,1.974,0,0,0,.376.194c.11.044.233.086.366.127v-1.89A1.442,1.442,0,0,0,181.582,212.624Z" transform="translate(-181.441 -212.106)" fill="#f9ab3c"/>
        </g>
        <g id="Group_1187" data-name="Group 1187" transform="translate(11.343 16.465)">
          <path id="Path_3779" data-name="Path 3779" d="M242.656,299.619l-.009.015h0Z" transform="translate(-242.647 -299.619)" fill="#f9ab3c"/>
        </g>
        <g id="Group_1188" data-name="Group 1188" transform="translate(11.362 16.444)">
          <path id="Path_3780" data-name="Path 3780" d="M243,299.245Z" transform="translate(-243.004 -299.244)" fill="#f9ab3c"/>
        </g>
        <g id="Group_1189" data-name="Group 1189" transform="translate(0 0)">
          <path id="Path_3781" data-name="Path 3781" d="M47.147,5.082c1.777-1.492,2.964-4.855,2.233-5-.971-.2-3.079.662-4.1.813-1.445.174-3.019-1.567-3.9-.6-.718.789.515,3.659,2.444,4.91-5.756,2.829-13.847,17.032.268,18.062C63.623,24.695,53.844,7.839,47.147,5.082Zm1.677,11.2a2.053,2.053,0,0,1-.792,1.394,3.027,3.027,0,0,1-1.621.573v.612a.574.574,0,1,1-1.149,0v-.669c-.1-.019-.2-.041-.294-.068a2.82,2.82,0,0,1-1.405-.865,2.533,2.533,0,0,1-.433-.716c-.027-.068-.051-.138-.072-.208a1.066,1.066,0,0,1-.045-.194.574.574,0,0,1,1.117-.238c.022.066.037.134.061.2a1.28,1.28,0,0,0,.088.189,1.464,1.464,0,0,0,.252.323,1.71,1.71,0,0,0,.731.4V14.74a4.088,4.088,0,0,1-1.506-.651,1.753,1.753,0,0,1-.509-.611,1.912,1.912,0,0,1-.177-.822,1.96,1.96,0,0,1,.172-.833,2.03,2.03,0,0,1,.471-.647,2.877,2.877,0,0,1,1.549-.686V9.855a.574.574,0,1,1,1.149,0v.632q.113.014.225.034a2.837,2.837,0,0,1,1.5.728,2.192,2.192,0,0,1,.459.66,2.105,2.105,0,0,1,.081.21,1.277,1.277,0,0,1,.054.2.574.574,0,0,1-1.1.29c-.024-.063-.036-.129-.061-.192a1.013,1.013,0,0,0-.094-.181,1.1,1.1,0,0,0-.271-.285,1.862,1.862,0,0,0-.789-.308v2.175a7.294,7.294,0,0,1,.981.291,2.294,2.294,0,0,1,1.2.938c-.041-.071-.08-.141,0,0s.042.074,0,0A2.049,2.049,0,0,1,48.824,16.283Z" transform="translate(-36.238 0)" fill="#f9ab3c"/>
        </g>
        <g id="Group_1190" data-name="Group 1190" transform="translate(11.326 16.495)">
          <path id="Path_3782" data-name="Path 3782" d="M242.346,300.169l-.009.015Z" transform="translate(-242.337 -300.169)" fill="#f9ab3c"/>
        </g>
      </g>
    </g>
  </g>
</svg>
