<svg xmlns="http://www.w3.org/2000/svg" width="50" height="50" viewBox="0 0 50 50">
  <g id="Group_1279" data-name="Group 1279" transform="translate(-174 -383)">
    <path id="Path_3637" data-name="Path 3637" d="M25,0A25,25,0,1,1,0,25,25,25,0,0,1,25,0Z" transform="translate(174 383)" fill="rgba(249,171,60,0.1)"/>
    <g id="food_3_" data-name="food (3)" transform="translate(185 355.764)">
      <g id="Group_1064" data-name="Group 1064" transform="translate(0 42.236)">
        <path id="Path_3628" data-name="Path 3628" d="M100.163,95.6a6.611,6.611,0,1,0-6.611-6.611A6.618,6.618,0,0,0,100.163,95.6Z" transform="translate(-84.75 -78.6)" fill="#f9ab3c"/>
        <path id="Path_3629" data-name="Path 3629" d="M83.082,80.3A8.385,8.385,0,1,0,74.7,71.915,8.385,8.385,0,0,0,83.082,80.3Zm0-15.486a7.1,7.1,0,1,1-7.1,7.1A7.11,7.11,0,0,1,83.082,64.814Z" transform="translate(-67.669 -61.526)" fill="#f9ab3c"/>
        <path id="Path_3630" data-name="Path 3630" d="M262.3,61.79l-.489-18.821a.734.734,0,0,0-.734-.734.716.716,0,0,0-.3.068V42.3l-.046.031a.752.752,0,0,0-.188.145,7.174,7.174,0,0,0-2.393,4.666c-.217,3.7,1.582,5.2,2.195,6.579l-.489,8.073c0,.405.818.734,1.223.734S262.3,62.2,262.3,61.79Z" transform="translate(-233.846 -42.236)" fill="#f9ab3c"/>
        <path id="Path_3631" data-name="Path 3631" d="M1.281,52.9l1.267.633a2.151,2.151,0,0,0,.47.164L2.528,64.708c0,.34.818.615,1.223.615s1.223-.275,1.223-.615L4.485,53.642a2.18,2.18,0,0,0,.484-.209l.938-.571a2.67,2.67,0,0,0,1.187-2.115V45.814a.734.734,0,0,0-1.468,0v4.443H5.219V45.814a.734.734,0,0,0-1.468,0v4.443H3.342V45.814a.734.734,0,0,0-1.468,0v4.443H1.468V45.972a.734.734,0,0,0-1.468,0v4.856A2.467,2.467,0,0,0,1.281,52.9Z" transform="translate(0 -44.812)" fill="#f9ab3c"/>
      </g>
    </g>
  </g>
</svg>
