<svg xmlns="http://www.w3.org/2000/svg" width="50" height="50" viewBox="0 0 50 50">
  <g id="Group_1286" data-name="Group 1286" transform="translate(-174 -383)">
    <path id="Path_3637" data-name="Path 3637" d="M25,0A25,25,0,1,1,0,25,25,25,0,0,1,25,0Z" transform="translate(174 383)" fill="rgba(124,45,127,0.1)"/>
    <g id="game-controller_1_" data-name="game-controller (1)" transform="translate(187.997 393)">
      <path id="Path_3684" data-name="Path 3684" d="M2.064,22.938c1.1,0,2.4-.815,3.978-2.493a4.913,4.913,0,0,1,3.524-1.54h3.812a4.913,4.913,0,0,1,3.524,1.54c1.58,1.677,2.88,2.493,3.978,2.493a1.8,1.8,0,0,0,1.656-1.168,5.523,5.523,0,0,0,.4-2.271c0-3.9-2.521-11.391-6.38-11.391a3.379,3.379,0,0,0-2.19.7,3.331,3.331,0,0,1-1.442.624,3.16,3.16,0,0,0,.559-1.659,4.508,4.508,0,0,0-1.572-2.857A3.436,3.436,0,0,1,10.8,3.024a3.3,3.3,0,0,1,1.116-1.847A.672.672,0,0,0,11.03.166,4.51,4.51,0,0,0,9.456,3.024a4.657,4.657,0,0,0,1.572,2.9,3.3,3.3,0,0,1,1.116,1.847,3,3,0,0,1-.943,1.68h-1.04a3.328,3.328,0,0,1-1.588-.645,3.379,3.379,0,0,0-2.19-.7C2.524,8.109,0,15.6,0,19.5c0,3.1,1.446,3.438,2.061,3.438Zm14.784-6.765a.672.672,0,1,1,.672-.672A.672.672,0,0,1,16.849,16.173Zm1.344-2.688a.672.672,0,1,1-.672.672A.672.672,0,0,1,18.193,13.485Zm-1.344-1.344a.672.672,0,1,1-.672.672A.672.672,0,0,1,16.849,12.141ZM15.5,13.485a.672.672,0,1,1-.672.672A.672.672,0,0,1,15.5,13.485Zm-5.376,0h2.688a.672.672,0,0,1,0,1.344H10.128a.672.672,0,0,1,0-1.344Zm-5.376,0h.672v-.672a.672.672,0,1,1,1.344,0v.672H7.44a.672.672,0,0,1,0,1.344H6.768V15.5a.672.672,0,1,1-1.344,0v-.672H4.752a.672.672,0,0,1,0-1.344Z" fill="#7c2d7f"/>
    </g>
  </g>
</svg>
