<svg xmlns="http://www.w3.org/2000/svg" width="50" height="50" viewBox="0 0 50 50">
  <g id="Group_1288" data-name="Group 1288" transform="translate(-174 -383)">
    <path id="Path_3637" data-name="Path 3637" d="M25,0A25,25,0,1,1,0,25,25,25,0,0,1,25,0Z" transform="translate(174 383)" fill="rgba(39,170,225,0.1)"/>
    <g id="cosmetics" transform="translate(117.461 364)">
      <ellipse id="Ellipse_151" data-name="Ellipse 151" cx="2.5" cy="0.833" rx="2.5" ry="0.833" transform="translate(82.509 50.33)" fill="#27aae1"/>
      <path id="Path_3689" data-name="Path 3689" d="M186.554,464.833h10.831a1.252,1.252,0,0,0,1.178-.833H185.376A1.252,1.252,0,0,0,186.554,464.833Z" transform="translate(-106.961 -409.504)" fill="#27aae1"/>
      <path id="Path_3690" data-name="Path 3690" d="M80.737,75.248a.419.419,0,0,1,0-.055,2.263,2.263,0,0,1,.541-1.576,2.782,2.782,0,0,1,.816-.647L82.683,64H74.625l1.087,16.664h3.775V78.581a2.086,2.086,0,0,1,1.25-1.909Zm-5-7.5v-2.5a.417.417,0,0,1,.417-.417h5a.417.417,0,0,1,.417.417v2.5a.417.417,0,0,1-.417.417h-5A.417.417,0,0,1,75.738,67.749Zm4.582,2.083H76.988a.417.417,0,0,1,0-.833h3.333a.417.417,0,1,1,0,.833Z" transform="translate(-1.977 -30.334)" fill="#27aae1"/>
      <path id="Path_3691" data-name="Path 3691" d="M184,357h13.331v-5H184Zm4.439-3.766a6.4,6.4,0,0,1,4.452,0c.963.413,1.107.971,1.107,1.267s-.144.854-1.107,1.267a6.4,6.4,0,0,1-4.452,0c-.963-.413-1.107-.971-1.107-1.267S187.477,353.646,188.439,353.233Z" transform="translate(-105.657 -303.336)" fill="#27aae1"/>
      <path id="Path_3692" data-name="Path 3692" d="M186.554,320a1.252,1.252,0,0,0-1.178.833h13.188a1.252,1.252,0,0,0-1.178-.833Z" transform="translate(-106.961 -273.003)" fill="#27aae1"/>
      <path id="Path_3693" data-name="Path 3693" d="M208.774,212.57a1.451,1.451,0,0,0-.336.689h10.789a3.774,3.774,0,0,0-1.277-2.508,4.8,4.8,0,0,0-1.053-.719,3.262,3.262,0,0,1-.833.7,8.246,8.246,0,0,1-4.262.929A4,4,0,0,0,208.774,212.57Z" transform="translate(-128.822 -168.761)" fill="#27aae1"/>
      <path id="Path_3694" data-name="Path 3694" d="M208,288h10.831v.833H208Z" transform="translate(-128.407 -242.669)" fill="#27aae1"/>
      <path id="Path_3695" data-name="Path 3695" d="M112,96h4.166v1.666H112Z" transform="translate(-37.406 -60.667)" fill="#27aae1"/>
      <path id="Path_3696" data-name="Path 3696" d="M99.749,400H96v2.5h1.25v-.417a1.251,1.251,0,0,1,1.25-1.25h.833a1.244,1.244,0,0,1,.417.072Z" transform="translate(-22.239 -348.837)" fill="#27aae1"/>
      <path id="Path_3697" data-name="Path 3697" d="M136.417,432a.417.417,0,0,0-.417.417v.417h1.666v-.417a.417.417,0,0,0-.417-.417Z" transform="translate(-60.156 -379.171)" fill="#27aae1"/>
      <path id="Path_3698" data-name="Path 3698" d="M80.815,32H72.539l.054.833H80.76Z" fill="#27aae1"/>
      <path id="Path_3699" data-name="Path 3699" d="M97.376,464a1.252,1.252,0,0,0,1.178.833h2.917A2.074,2.074,0,0,1,101.1,464Z" transform="translate(-23.544 -409.504)" fill="#27aae1"/>
    </g>
  </g>
</svg>
