<svg xmlns="http://www.w3.org/2000/svg" width="50" height="50" viewBox="0 0 50 50">
  <g id="Group_1280" data-name="Group 1280" transform="translate(-174 -383)">
    <path id="Path_3637" data-name="Path 3637" d="M25,0A25,25,0,1,1,0,25,25,25,0,0,1,25,0Z" transform="translate(174 383)" fill="rgba(241,90,41,0.1)"/>
    <g id="wine_2_" data-name="wine (2)" transform="translate(185.558 394.273)">
      <g id="Group_1081" data-name="Group 1081" transform="translate(0 1.223)">
        <path id="Path_3651" data-name="Path 3651" d="M27.425,22.12c-.077-.214-.343-.214-.43-.214a13.23,13.23,0,0,0-3.03.738.98.98,0,0,0-.263-.1,41.559,41.559,0,0,1-2.719-7.558A3.876,3.876,0,0,0,23.2,12.489c1.012-3.664-3.3-8.972-3.489-9.2l-.174-.21L13.749,5.15,7.964,3.082l-.172.21c-.184.224-4.5,5.523-3.489,9.2A3.874,3.874,0,0,0,6.52,14.983,41.626,41.626,0,0,1,3.8,22.541a.964.964,0,0,0-.263.1,13.176,13.176,0,0,0-3.03-.738c-.088,0-.355,0-.431.214L0,22.328l8.122,2.9.075-.209c.06-.167.2-.554-3.01-1.787a.936.936,0,0,0-.138-.247,41.593,41.593,0,0,1,2.687-7.569,3.89,3.89,0,0,0,3.294-.524c1.541-1.089,2.323-3.307,2.721-5.31.4,2,1.179,4.221,2.721,5.31a3.888,3.888,0,0,0,3.294.524,41.72,41.72,0,0,1,2.687,7.569.871.871,0,0,0-.138.247c-3.208,1.232-3.071,1.621-3.01,1.787l.075.209,8.122-2.9ZM14.159,5.828,19.28,4a22.727,22.727,0,0,1,2.192,3.474c-.42.288-1.146.607-2.944-.348-1.867-.989-3.521.263-4.226.943-.089-.692-.137-1.3-.16-1.738C14.15,6.125,14.155,5.954,14.159,5.828Zm-.9,1.784c-.354.594-1.1,1.116-2.63.1A5.01,5.01,0,0,0,6.3,6.956,23.247,23.247,0,0,1,8.223,4l5.119,1.83c0,.127.007.3.017.5C13.341,6.665,13.309,7.106,13.254,7.611Z" transform="translate(0 -0.772)" fill="#f15a29"/>
        <path id="Path_3652" data-name="Path 3652" d="M9.692,3.834a.44.44,0,0,0,.313.129.442.442,0,0,0,.313-.756L9.267,2.156a.443.443,0,0,0-.626.626Z" transform="translate(2.067 -1.028)" fill="#f15a29"/>
        <path id="Path_3653" data-name="Path 3653" d="M10.3,3.215a.442.442,0,0,0,.428.328.461.461,0,0,0,.116-.015.442.442,0,0,0,.313-.542l-.385-1.436a.443.443,0,1,0-.855.229Z" transform="translate(2.405 -1.223)" fill="#f15a29"/>
        <path id="Path_3654" data-name="Path 3654" d="M11.529,3.529a.461.461,0,0,0,.116.015.444.444,0,0,0,.428-.328l.385-1.436a.443.443,0,1,0-.855-.229l-.385,1.436A.442.442,0,0,0,11.529,3.529Z" transform="translate(2.721 -1.223)" fill="#f15a29"/>
        <path id="Path_3655" data-name="Path 3655" d="M12.188,3.833a.44.44,0,0,0,.313.129.445.445,0,0,0,.313-.129l1.051-1.051a.443.443,0,1,0-.626-.626L12.188,3.207A.439.439,0,0,0,12.188,3.833Z" transform="translate(2.928 -1.028)" fill="#f15a29"/>
      </g>
    </g>
  </g>
</svg>
