<svg xmlns="http://www.w3.org/2000/svg" width="50" height="50" viewBox="0 0 50 50">
  <g id="Group_1290" data-name="Group 1290" transform="translate(-174 -383)">
    <path id="Path_3637" data-name="Path 3637" d="M25,0A25,25,0,1,1,0,25,25,25,0,0,1,25,0Z" transform="translate(174 383)" fill="rgba(241,90,41,0.1)"/>
    <g id="basket_1_" data-name="basket (1)" transform="translate(187.389 377.282)">
      <g id="Group_1111" data-name="Group 1111" transform="translate(0 19.718)">
        <path id="Path_3688" data-name="Path 3688" d="M21.427,27.047H20.6L16.908,20.08a.679.679,0,1,0-1.2.636l3.357,6.331H4.222l3.357-6.331a.679.679,0,1,0-1.2-.636L2.684,27.047H1.761a1.761,1.761,0,0,0,0,3.522H1.81c0,.01,0,.019,0,.029l1.417,7.944A3.124,3.124,0,0,0,6.309,41.12H16.977a3.124,3.124,0,0,0,3.078-2.578L21.472,30.6c0-.01,0-.02,0-.03a1.761,1.761,0,0,0-.05-3.521ZM8.689,38.809a.679.679,0,0,1-.783-.557L6.9,32.3a.679.679,0,1,1,1.34-.226l1,5.949A.68.68,0,0,1,8.689,38.809Zm3.554-.67a.679.679,0,0,1-1.359,0V32.191a.679.679,0,0,1,1.359,0ZM16.177,32.3l-1,5.949a.679.679,0,1,1-1.34-.226l1-5.949a.679.679,0,1,1,1.34.226Z" transform="translate(0 -19.718)" fill="#f15a29"/>
      </g>
    </g>
  </g>
</svg>
