<svg xmlns="http://www.w3.org/2000/svg" width="50" height="50" viewBox="0 0 50 50">
  <g id="Group_1287" data-name="Group 1287" transform="translate(-174 -383)">
    <path id="Path_3637" data-name="Path 3637" d="M25,0A25,25,0,1,1,0,25,25,25,0,0,1,25,0Z" transform="translate(174 383)" fill="rgba(190,217,95,0.1)"/>
    <g id="american-football" transform="translate(187.813 397.917)">
      <g id="Group_1103" data-name="Group 1103" transform="translate(1.187 11.799)">
        <g id="Group_1102" data-name="Group 1102" transform="translate(0)">
          <path id="Path_3685" data-name="Path 3685" d="M9.313,309.408l-7.5-7.476a.179.179,0,0,0-.3.091c-.063.31-.112.6-.15.85-.4,2.675-.109,5.208.706,6.16.709.828,2.381,1.013,3.315,1.049q.232.009.477.009a15.813,15.813,0,0,0,3.363-.383A.179.179,0,0,0,9.313,309.408Z" transform="translate(-1.187 -301.88)" fill="#bed95f"/>
        </g>
      </g>
      <g id="Group_1105" data-name="Group 1105" transform="translate(12.517 0)">
        <g id="Group_1104" data-name="Group 1104" transform="translate(0)">
          <path id="Path_3686" data-name="Path 3686" d="M299.65,4.588c-.009-.827-.12-2.84-.968-3.654C297.79.077,295.26-.232,292.53.182c-.382.058-.832.14-1.33.258a.179.179,0,0,0-.086.3l7.79,7.768a.179.179,0,0,0,.3-.085A16.21,16.21,0,0,0,299.65,4.588Z" transform="translate(-291.062 0)" fill="#bed95f"/>
        </g>
      </g>
      <g id="Group_1107" data-name="Group 1107" transform="translate(1.956 0.921)">
        <g id="Group_1106" data-name="Group 1106" transform="translate(0)">
          <path id="Path_3687" data-name="Path 3687" d="M39.025,32.588l-8.981-8.955a.178.178,0,0,0-.184-.043,13.807,13.807,0,0,0-8.995,9.276.178.178,0,0,0,.044.18l8.75,8.725a.179.179,0,0,0,.182.043,14.875,14.875,0,0,0,5.847-3.526,14.516,14.516,0,0,0,3.379-5.515A.179.179,0,0,0,39.025,32.588ZM34.04,31.209a.586.586,0,0,1-.831,0l-.341-.341a.179.179,0,0,0-.253,0l-.389.389a.179.179,0,0,0,0,.253l.328.328a.6.6,0,0,1,.014.84.586.586,0,0,1-.831,0l-.341-.341a.179.179,0,0,0-.253,0l-.415.415a.179.179,0,0,0,0,.253l.315.315a.6.6,0,0,1,.014.84.586.586,0,0,1-.831,0l-.453-.453-.515.515a.179.179,0,0,0,0,.253l.315.315a.6.6,0,0,1,.014.84.586.586,0,0,1-.831,0l-.327-.327a.179.179,0,0,0-.253,0l-.361.361a.179.179,0,0,0,0,.253l.328.328a.6.6,0,0,1,.014.84.586.586,0,0,1-.831,0l-.345-.345a.172.172,0,0,0-.244,0l-.017.017a.586.586,0,0,1-.856-.029.6.6,0,0,1,.039-.813.179.179,0,0,0,0-.253l-.329-.329a.6.6,0,0,1-.031-.82.586.586,0,0,1,.849-.021l.341.341a.179.179,0,0,0,.253,0l.361-.361a.179.179,0,0,0,0-.253L27,33.884a.6.6,0,0,1-.031-.82.586.586,0,0,1,.849-.021l.355.355a.179.179,0,0,0,.253,0l.389-.389a.179.179,0,0,0,0-.253l-.343-.343a.6.6,0,0,1-.031-.82.586.586,0,0,1,.849-.021l.355.355a.179.179,0,0,0,.253,0l.415-.415a.179.179,0,0,0,0-.253l-.329-.329a.6.6,0,0,1-.031-.82.586.586,0,0,1,.849-.021l.341.341a.179.179,0,0,0,.253,0l.389-.389a.179.179,0,0,0,0-.253l-.329-.329a.6.6,0,0,1-.031-.82.586.586,0,0,1,.849-.021l.341.341a.179.179,0,0,0,.253,0l.19-.19a.6.6,0,0,1,.82-.031.586.586,0,0,1,.02.849l-.2.2a.179.179,0,0,0,0,.253l.328.328A.6.6,0,0,1,34.04,31.209Z" transform="translate(-20.857 -23.58)" fill="#bed95f"/>
        </g>
      </g>
    </g>
  </g>
</svg>
