<svg xmlns="http://www.w3.org/2000/svg" width="50" height="50" viewBox="0 0 50 50">
  <g id="Group_1289" data-name="Group 1289" transform="translate(-174 -383)">
    <path id="Path_3637" data-name="Path 3637" d="M25,0A25,25,0,1,1,0,25,25,25,0,0,1,25,0Z" transform="translate(174 383)" fill="rgba(249,171,60,0.1)"/>
    <g id="airplane-black-shape-ascending-rotated-to-right" transform="translate(187.848 397)">
      <g id="Group_1066" data-name="Group 1066" transform="translate(0.153 0)">
        <path id="Path_3634" data-name="Path 3634" d="M21.709.025c-.688-.161-2.053.469-3.049,1.406L13.62,6.176a.856.856,0,0,1-.823.161L3.6,2.774a.97.97,0,0,0-.853.125L.935,4.3a.313.313,0,0,0,.035.556L9.442,9.866c.235.139.223.341-.016.474-.92.51-2.7,2.17-4.811,5.141a.839.839,0,0,1-.721.377l-2.117-.272a1.019,1.019,0,0,0-.812.314l-.709.835a.365.365,0,0,0,.125.594l1.89.918a.553.553,0,0,1,.261.676,3.44,3.44,0,0,0-.183,1.035.6.6,0,0,0,.54.56,2.558,2.558,0,0,0,1.449-.349.391.391,0,0,1,.6.148L6.057,22.7a.374.374,0,0,0,.6.141l.494-.391a1.039,1.039,0,0,0,.35-.8l-.189-2.456a.886.886,0,0,1,.386-.749c1.071-.662,3.887-2.508,5.144-4.354.154-.227.377-.234.523,0l4.93,7.849A.371.371,0,0,0,18.9,22l1.005-1.037a.894.894,0,0,0,.189-.825l-3.236-9.709a.927.927,0,0,1,.178-.835l4.454-4.856A5.464,5.464,0,0,0,23.06,1.615,1.886,1.886,0,0,0,21.709.025Z" transform="translate(-0.153 0)" fill="#f9ab3c"/>
      </g>
    </g>
  </g>
</svg>
